<svg width="24" height="24" viewBox="0 0 24 24" fill="none" xmlns="http://www.w3.org/2000/svg">
<path fill-rule="evenodd" clip-rule="evenodd" d="M14.4473 3.03101C14.847 3.14 15.0826 3.5523 14.9736 3.95192L10.4736 20.4519C10.3646 20.8515 9.95228 21.0871 9.55266 20.9782C9.15304 20.8692 8.91744 20.4569 9.02643 20.0572L13.5264 3.55724C13.6354 3.15763 14.0477 2.92202 14.4473 3.03101ZM16.7197 6.22425C17.0126 5.93136 17.4874 5.93136 17.7803 6.22425L23.0303 11.4743C23.3232 11.7671 23.3232 12.242 23.0303 12.5349L17.7803 17.7849C17.4874 18.0778 17.0126 18.0778 16.7197 17.7849C16.4268 17.492 16.4268 17.0171 16.7197 16.7243L21.4393 12.0046L16.7197 7.28491C16.4268 6.99202 16.4268 6.51715 16.7197 6.22425ZM7.28033 6.22425C7.57322 6.51715 7.57322 6.99202 7.28033 7.28491L2.56066 12.0046L7.28033 16.7243C7.57322 17.0171 7.57322 17.492 7.28033 17.7849C6.98744 18.0778 6.51256 18.0778 6.21967 17.7849L0.96967 12.5349C0.676777 12.242 0.676777 11.7671 0.96967 11.4743L6.21967 6.22425C6.51256 5.93136 6.98744 5.93136 7.28033 6.22425Z" fill="#0F172A"/>
</svg>
