<svg width="24" height="24" viewBox="0 0 24 24" fill="none" xmlns="http://www.w3.org/2000/svg">
<path fill-rule="evenodd" clip-rule="evenodd" d="M3 6.00464C3 4.34778 4.34315 3.00464 6 3.00464H18C19.6569 3.00464 21 4.34778 21 6.00464V18.0046C21 19.6615 19.6569 21.0046 18 21.0046H6C4.34315 21.0046 3 19.6615 3 18.0046V6.00464ZM17.25 12.0046C17.25 12.2036 17.171 12.3943 17.0303 12.535L14.7803 14.785C14.4874 15.0779 14.0126 15.0779 13.7197 14.785C13.4268 14.4921 13.4268 14.0172 13.7197 13.7243L15.4393 12.0046L13.7197 10.285C13.4268 9.99207 13.4268 9.5172 13.7197 9.22431C14.0126 8.93142 14.4874 8.93142 14.7803 9.22431L17.0303 11.4743C17.171 11.615 17.25 11.8057 17.25 12.0046ZM6.96967 11.4743C6.82902 11.615 6.75 11.8057 6.75 12.0046C6.75 12.2036 6.82902 12.3943 6.96967 12.535L9.21967 14.785C9.51256 15.0779 9.98744 15.0779 10.2803 14.785C10.5732 14.4921 10.5732 14.0172 10.2803 13.7243L8.56066 12.0046L10.2803 10.285C10.5732 9.99208 10.5732 9.5172 10.2803 9.22431C9.98744 8.93142 9.51256 8.93142 9.21967 9.22431L6.96967 11.4743Z" fill="#0F172A"/>
</svg>
