<svg width="18" height="18" viewBox="0 0 18 18" fill="none" xmlns="http://www.w3.org/2000/svg">
<path fill-rule="evenodd" clip-rule="evenodd" d="M0 3C0 1.34315 1.34315 0 3 0H15C16.6569 0 18 1.34315 18 3V15C18 16.6569 16.6569 18 15 18H3C1.34315 18 0 16.6569 0 15V3ZM14.25 9C14.25 9.19891 14.171 9.38968 14.0303 9.53033L11.7803 11.7803C11.4874 12.0732 11.0126 12.0732 10.7197 11.7803C10.4268 11.4874 10.4268 11.0126 10.7197 10.7197L12.4393 9L10.7197 7.28033C10.4268 6.98744 10.4268 6.51256 10.7197 6.21967C11.0126 5.92678 11.4874 5.92678 11.7803 6.21967L14.0303 8.46967C14.171 8.61032 14.25 8.80109 14.25 9ZM3.96967 8.46967C3.82902 8.61032 3.75 8.80109 3.75 9C3.75 9.19891 3.82902 9.38968 3.96967 9.53033L6.21967 11.7803C6.51256 12.0732 6.98744 12.0732 7.28033 11.7803C7.57322 11.4874 7.57322 11.0126 7.28033 10.7197L5.56066 9L7.28033 7.28033C7.57322 6.98744 7.57322 6.51256 7.28033 6.21967C6.98744 5.92678 6.51256 5.92678 6.21967 6.21967L3.96967 8.46967Z" fill="#607B96"/>
</svg>
