<svg width="24" height="24" viewBox="0 0 24 24" fill="none" xmlns="http://www.w3.org/2000/svg">
<path fill-rule="evenodd" clip-rule="evenodd" d="M5.625 1.50232C4.58947 1.50232 3.75 2.34178 3.75 3.37732V20.6273C3.75 21.6629 4.58947 22.5023 5.625 22.5023H18.375C19.4105 22.5023 20.25 21.6629 20.25 20.6273V12.7523C20.25 10.6813 18.5711 9.00232 16.5 9.00232H14.625C13.5895 9.00232 12.75 8.16285 12.75 7.12732V5.25232C12.75 3.18125 11.0711 1.50232 9 1.50232H5.625ZM7.5 15.0023C7.5 14.5881 7.83579 14.2523 8.25 14.2523H15.75C16.1642 14.2523 16.5 14.5881 16.5 15.0023C16.5 15.4165 16.1642 15.7523 15.75 15.7523H8.25C7.83579 15.7523 7.5 15.4165 7.5 15.0023ZM8.25 17.2523C7.83579 17.2523 7.5 17.5881 7.5 18.0023C7.5 18.4165 7.83579 18.7523 8.25 18.7523H12C12.4142 18.7523 12.75 18.4165 12.75 18.0023C12.75 17.5881 12.4142 17.2523 12 17.2523H8.25Z" fill="#0F172A"/>
<path d="M12.9712 1.81822C13.768 2.7388 14.25 3.93927 14.25 5.25232V7.12732C14.25 7.33443 14.4179 7.50232 14.625 7.50232H16.5C17.8131 7.50232 19.0135 7.98436 19.9341 8.78113C19.0462 5.3822 16.3701 2.70609 12.9712 1.81822Z" fill="#0F172A"/>
</svg>
