<svg width="24" height="24" viewBox="0 0 24 24" fill="none" xmlns="http://www.w3.org/2000/svg">
<path d="M21.75 6.75232V17.2523C21.75 18.495 20.7426 19.5023 19.5 19.5023H4.5C3.25736 19.5023 2.25 18.495 2.25 17.2523V6.75232M21.75 6.75232C21.75 5.50968 20.7426 4.50232 19.5 4.50232H4.5C3.25736 4.50232 2.25 5.50968 2.25 6.75232M21.75 6.75232V6.99503C21.75 7.77637 21.3447 8.50176 20.6792 8.91126L13.1792 13.5266C12.4561 13.9717 11.5439 13.9717 10.8208 13.5266L3.32078 8.91126C2.65535 8.50177 2.25 7.77637 2.25 6.99503V6.75232" stroke="#0F172A" stroke-width="1.5" stroke-linecap="round" stroke-linejoin="round"/>
</svg>
