<svg width="20" height="20" viewBox="0 0 20 20" fill="none" xmlns="http://www.w3.org/2000/svg">
<path fill-rule="evenodd" clip-rule="evenodd" d="M10 0.25C4.61522 0.25 0.25 4.61522 0.25 10C0.25 15.3848 4.61522 19.75 10 19.75C15.3848 19.75 19.75 15.3848 19.75 10C19.75 4.61522 15.3848 0.25 10 0.25ZM7.375 6.25C6.83433 6.25 6.54674 6.66881 6.43901 6.88426C6.30886 7.14457 6.25 7.45171 6.25 7.75C6.25 8.04829 6.30886 8.35543 6.43901 8.61574C6.54674 8.83119 6.83433 9.25 7.375 9.25C7.91567 9.25 8.20326 8.83119 8.31099 8.61574C8.44114 8.35543 8.5 8.04829 8.5 7.75C8.5 7.45171 8.44114 7.14457 8.31099 6.88426C8.20326 6.66881 7.91567 6.25 7.375 6.25ZM11.689 6.88426C11.7967 6.66881 12.0843 6.25 12.625 6.25C13.1657 6.25 13.4533 6.66881 13.561 6.88426C13.6911 7.14457 13.75 7.45171 13.75 7.75C13.75 8.04829 13.6911 8.35543 13.561 8.61574C13.4533 8.83119 13.1657 9.25 12.625 9.25C12.0843 9.25 11.7967 8.83119 11.689 8.61574C11.5589 8.35543 11.5 8.04829 11.5 7.75C11.5 7.45171 11.5589 7.14457 11.689 6.88426ZM13.7123 13.7123C14.0052 13.4194 14.0052 12.9446 13.7123 12.6517C13.4194 12.3588 12.9445 12.3588 12.6517 12.6517C11.1872 14.1161 8.81282 14.1161 7.34835 12.6517C7.05546 12.3588 6.58058 12.3588 6.28769 12.6517C5.9948 12.9446 5.9948 13.4194 6.28769 13.7123C8.33794 15.7626 11.6621 15.7626 13.7123 13.7123Z" fill="#607B96"/>
</svg>
