<svg width="24" height="24" viewBox="0 0 24 24" fill="none" xmlns="http://www.w3.org/2000/svg">
<path d="M15.182 15.1866C13.4246 16.944 10.5754 16.944 8.81802 15.1866M21 12.0046C21 16.9752 16.9706 21.0046 12 21.0046C7.02944 21.0046 3 16.9752 3 12.0046C3 7.03408 7.02944 3.00464 12 3.00464C16.9706 3.00464 21 7.03408 21 12.0046ZM9.75 9.75464C9.75 10.1689 9.58211 10.5046 9.375 10.5046C9.16789 10.5046 9 10.1689 9 9.75464C9 9.34043 9.16789 9.00464 9.375 9.00464C9.58211 9.00464 9.75 9.34043 9.75 9.75464ZM9.375 9.75464H9.3825V9.76964H9.375V9.75464ZM15 9.75464C15 10.1689 14.8321 10.5046 14.625 10.5046C14.4179 10.5046 14.25 10.1689 14.25 9.75464C14.25 9.34043 14.4179 9.00464 14.625 9.00464C14.8321 9.00464 15 9.34043 15 9.75464ZM14.625 9.75464H14.6325V9.76964H14.625V9.75464Z" stroke="#0F172A" stroke-width="1.5" stroke-linecap="round" stroke-linejoin="round"/>
</svg>
