<svg width="24" height="24" viewBox="0 0 24 24" fill="none" xmlns="http://www.w3.org/2000/svg">
<path d="M19.9057 9.00464C20.2877 9.00464 20.6549 9.06128 21 9.1662V9.00464C21 7.34778 19.6569 6.00464 18 6.00464H14.1213C13.9224 6.00464 13.7316 5.92562 13.591 5.78497L11.4697 3.66365C11.0477 3.24169 10.4754 3.00464 9.87868 3.00464H6C4.34315 3.00464 3 4.34778 3 6.00464V9.16616C3.34508 9.06127 3.71223 9.00464 4.09421 9.00464H19.9057Z" fill="#0F172A"/>
<path d="M4.0943 10.5046C2.72506 10.5046 1.67327 11.7174 1.86691 13.0728L2.72405 19.0728C2.8824 20.1813 3.83173 21.0046 4.95144 21.0046H19.0486C20.1683 21.0046 21.1176 20.1813 21.276 19.0728L22.1331 13.0728C22.3268 11.7174 21.275 10.5046 19.9058 10.5046H4.0943Z" fill="#0F172A"/>
</svg>
