<svg width="24" height="24" viewBox="0 0 24 24" fill="none" xmlns="http://www.w3.org/2000/svg">
<path d="M3.75002 9.78066C3.86206 9.76354 3.97701 9.75464 4.0943 9.75464H19.9058C20.023 9.75464 20.138 9.76354 20.25 9.78066M3.75002 9.78066C2.55402 9.96344 1.68986 11.0835 1.86691 12.3228L2.72405 18.3228C2.8824 19.4313 3.83173 20.2546 4.95144 20.2546H19.0486C20.1683 20.2546 21.1176 19.4313 21.276 18.3228L22.1331 12.3228C22.3102 11.0835 21.446 9.96344 20.25 9.78066M3.75002 9.78066V6.00464C3.75002 4.762 4.75738 3.75464 6.00002 3.75464H9.8787C10.2765 3.75464 10.6581 3.91267 10.9394 4.19398L13.0607 6.3153C13.342 6.5966 13.7235 6.75464 14.1213 6.75464H18C19.2427 6.75464 20.25 7.762 20.25 9.00464V9.78066" stroke="#0F172A" stroke-width="1.5" stroke-linecap="round" stroke-linejoin="round"/>
</svg>
