<svg width="24" height="24" viewBox="0 0 24 24" fill="none" xmlns="http://www.w3.org/2000/svg">
<path d="M19.5 21.0046C21.1569 21.0046 22.5 19.6615 22.5 18.0046V13.5046C22.5 11.8478 21.1569 10.5046 19.5 10.5046H4.5C2.84315 10.5046 1.5 11.8478 1.5 13.5046V18.0046C1.5 19.6615 2.84315 21.0046 4.5 21.0046H19.5Z" fill="#0F172A"/>
<path d="M1.5 10.1505V6.00464C1.5 4.34778 2.84315 3.00464 4.5 3.00464H9.87868C10.4754 3.00464 11.0477 3.24169 11.4697 3.66365L13.591 5.78497C13.7316 5.92562 13.9224 6.00464 14.1213 6.00464H19.5C21.1569 6.00464 22.5 7.34778 22.5 9.00464V10.1505C21.7039 9.43792 20.6525 9.00464 19.5 9.00464H4.5C3.34747 9.00464 2.29613 9.43792 1.5 10.1505Z" fill="#0F172A"/>
</svg>
