<svg width="24" height="24" viewBox="0 0 24 24" fill="none" xmlns="http://www.w3.org/2000/svg">
<path d="M19.006 3.71177C19.3953 3.57022 19.5961 3.13989 19.4546 2.75062C19.313 2.36134 18.8827 2.16053 18.4934 2.30208L5.99988 6.84518V3.00693C5.99988 2.59271 5.66409 2.25693 5.24988 2.25693H3.74988C3.33566 2.25693 2.99988 2.59271 2.99988 3.00693V7.93609L1.99341 8.30208C1.60413 8.44363 1.40332 8.87396 1.54487 9.26323C1.68643 9.65251 2.11675 9.85333 2.50602 9.71177L19.006 3.71177Z" fill="#0F172A"/>
<path fill-rule="evenodd" clip-rule="evenodd" d="M3.01883 11.1215L17.9999 5.6738V9.0953L22.006 10.5521C22.3953 10.6936 22.5961 11.124 22.4546 11.5132C22.313 11.9025 21.8827 12.1033 21.4934 11.9618L20.9997 11.7822V20.2569H21.7499C22.1641 20.2569 22.4999 20.5927 22.4999 21.0069C22.4999 21.4211 22.1641 21.7569 21.7499 21.7569H2.24988C1.83566 21.7569 1.49988 21.4211 1.49988 21.0069C1.49988 20.5927 1.83566 20.2569 2.24988 20.2569H2.99988V11.1283L3.01883 11.1215ZM17.9999 20.2569V10.6914L19.4997 11.2368V20.2569H17.9999ZM8.99988 14.2569C8.58566 14.2569 8.24988 14.5927 8.24988 15.0069V19.5069C8.24988 19.9211 8.58566 20.2569 8.99988 20.2569H11.9999C12.4141 20.2569 12.7499 19.9211 12.7499 19.5069V15.0069C12.7499 14.5927 12.4141 14.2569 11.9999 14.2569H8.99988Z" fill="#0F172A"/>
</svg>
